<svg xmlns="http://www.w3.org/2000/svg" width="256" height="256"><path fill="#1976D2" fill-opacity=".016" fill-rule="evenodd" d="M0 128.004v128.004l128.25-.254 128.25-.254.254-127.75L257.008 0H0v128.004m.485.496c0 70.4.119 99.053.265 63.672.146-35.38.146-92.98 0-128C.604 29.153.485 58.1.485 128.5"/><path fill="#1976D2" fill-opacity=".195" fill-rule="evenodd" d="M125.78 22.75c-.842.962-3.366 5.125-5.61 9.25-6.948 12.772-5.492 12.441-16.054 3.65C99.06 31.443 94.05 28 92.981 28c-2.179 0-2.411.728-3.991 12.5-.59 4.4-1.307 9.198-1.592 10.662l-.518 2.661-11.684-3.925c-6.425-2.159-12.248-3.708-12.939-3.443-1.819.698-1.566 4.063 1.181 15.686 1.341 5.674 2.297 10.458 2.124 10.631-.173.173-5.772.589-12.443.924-8.331.419-12.479 1.032-13.248 1.959-.866 1.044.043 3.121 4.005 9.155C46.694 89.103 49 92.881 49 93.205c0 .324-5.513.752-12.25.951-10.194.302-13.018.739-16.826 2.608-7.424 3.644-12.549 8.729-16.132 16.007C.897 118.652.5 120.427.5 127.5c0 7.073.397 8.848 3.292 14.729 3.583 7.278 8.708 12.363 16.132 16.007 3.808 1.869 6.632 2.306 16.826 2.608 6.737.199 12.25.627 12.25.951 0 .324-2.306 4.102-5.124 8.395-3.962 6.034-4.871 8.111-4.005 9.155.769.927 4.917 1.54 13.248 1.959 6.671.335 12.26.742 12.421.903.161.161-.781 4.793-2.095 10.293-2.705 11.328-3.003 15.349-1.188 16.045.691.265 6.514-1.284 12.939-3.443l11.684-3.925.518 2.661c.285 1.464 1.002 6.262 1.592 10.662 1.58 11.772 1.812 12.5 3.991 12.5 1.069 0 6.079-3.443 11.135-7.65 10.596-8.819 9.053-9.219 16.407 4.256 2.434 4.458 5.111 8.676 5.951 9.372 2.21 1.835 3.775.205 9.003-9.372 7.354-13.475 5.811-13.075 16.407-4.256 5.056 4.207 10.066 7.65 11.135 7.65 2.179 0 2.411-.728 3.991-12.5.59-4.4 1.307-9.198 1.592-10.662l.518-2.661 11.684 3.925c6.425 2.159 12.248 3.708 12.939 3.443 1.815-.696 1.517-4.717-1.188-16.045-1.314-5.5-2.256-10.132-2.095-10.293.161-.161 5.75-.568 12.421-.903 8.408-.423 12.475-1.029 13.261-1.975.885-1.067-.104-3.226-4.511-9.847L205.987 161h10.848c6.277 0 12.756-.574 15.377-1.363 9.638-2.901 17.957-10.884 21.323-20.463.903-2.571 2.052-5.455 2.554-6.41 1.126-2.147 1.216-12.071.103-11.382-.445.274-1.32-1.387-1.945-3.691-2.678-9.873-11.747-19.154-21.679-22.186-3.092-.944-8.967-1.505-15.756-1.505h-10.825l5.644-8.482c4.407-6.621 5.396-8.78 4.511-9.847-.786-.946-4.853-1.552-13.261-1.975-6.671-.335-12.27-.751-12.443-.924-.173-.173.783-4.957 2.124-10.631 2.747-11.623 3-14.988 1.181-15.686-.691-.265-6.514 1.284-12.939 3.443l-11.684 3.925-.518-2.661c-.285-1.464-1.002-6.262-1.592-10.662-1.58-11.772-1.812-12.5-3.991-12.5-1.069 0-6.079 3.443-11.135 7.65-10.562 8.791-9.106 9.122-16.054-3.65-4.113-7.562-6.561-11-7.83-11-.38 0-1.379.788-2.22 1.75M87.455 67.455C86.105 68.805 85 70.4 85 71c0 .6 1.105 2.195 2.455 3.545S90.4 77 91 77c.6 0 2.195-1.105 3.545-2.455S97 71.6 97 71c0-.6-1.105-2.195-2.455-3.545S91.6 65 91 65c-.6 0-2.195 1.105-3.545 2.455m74 0C160.105 68.805 159 70.4 159 71c0 .6 1.105 2.195 2.455 3.545S164.4 77 165 77c.6 0 2.195-1.105 3.545-2.455S171 71.6 171 71c0-1.416-4.584-6-6-6-.6 0-2.195 1.105-3.545 2.455M34.5 104.733c-1.1.275-3.35 1.387-5 2.471l-3 1.969 2.361-2.086c3.27-2.891.736-2.687-5.552.446C15.713 111.319 11 118.963 11 127.5c0 8.537 4.713 16.181 12.309 19.967 6.288 3.133 8.822 3.337 5.552.446-1.924-1.701-1.714-1.654 1.139.25l3.5 2.337 95.5.289c70.03.212 96.622-.019 99.708-.868 9.542-2.624 16.632-12.182 16.632-22.421 0-10.046-6.893-19.551-16.198-22.339-2.834-.849-29.222-1.13-98.258-1.045-51.911.064-95.284.341-96.384.617m25.057 8.49C58.408 114.862 58 117.981 58 125.116c0 7.673-.31 9.789-1.5 10.246-2.372.91-4.066-.199-5.589-3.657-1.729-3.927-5.256-4.798-6.91-1.707-2.728 5.098 2.707 12.787 9.637 13.635 4.953.605 9.937-2.373 11.922-7.123 2.075-4.966 1.983-21.825-.131-23.939-2.173-2.172-4.039-1.965-5.872.652m14.633-.254c-4.734 2.967-6.19 7.301-6.19 18.427 0 7.268.364 9.825 1.571 11.033 3.246 3.245 6.379 1.364 7.136-4.285.525-3.912.741-4.144 3.867-4.144 3.166 0 3.324.181 3.619 4.148.356 4.81 2.717 7.033 5.557 5.233 1.509-.957 1.75-2.775 1.75-13.228v-12.12l-3.093-3.09c-4.096-4.093-9.614-4.859-14.217-1.974m25.573-.404C95.558 114.847 94 118.885 94 127.5c0 8.745 1.581 12.715 5.967 14.983 5.742 2.969 12.714.969 15.516-4.45 1.904-3.683 1.897-4.51-.054-6.462-2.231-2.23-3.157-1.993-6.498 1.666-2.419 2.648-3.273 3.038-4.694 2.145-2.416-1.517-3.033-13.476-.792-15.336 2.008-1.667 4.362-.685 5.493 2.292 1.118 2.94 3.578 3.992 6.134 2.623 2.319-1.241 2.462-4.027.411-7.994-2.801-5.417-10.089-7.457-15.72-4.402m20.331-.179c-.779.94-1.061 5.984-.872 15.643.24 12.302.518 14.407 2.028 15.359 2.865 1.804 5.202-.434 5.562-5.327l.311-4.234 5.379 5.086c2.958 2.798 5.818 5.087 6.356 5.087 2.671 0 4.142-1.439 4.142-4.052 0-2.164-1.186-3.859-5-7.143-2.749-2.368-4.999-4.755-4.999-5.305 0-.55 2.25-2.937 4.999-5.305 5.011-4.316 6.041-6.754 3.8-8.995-2.249-2.249-5.226-1.205-10.016 3.512L127 121.425v-4.013c0-5.756-3.927-8.614-6.906-5.026m24.997.444c-.627 1.172-1.091 7.558-1.091 15.033 0 10.48.304 13.298 1.571 14.566 3.149 3.148 6.429 1.108 6.429-3.997 0-2.946.284-3.207 4.038-3.71 5.228-.701 8.779-3.084 10.503-7.047l1.381-3.175.039 4.282c.121 13.199 11.98 19.738 20.446 11.273 3.022-3.022 3.093-3.312 3.093-12.555s-.071-9.533-3.093-12.555c-6.176-6.176-16.378-4.056-18.992 3.946l-1.084 3.321-1.246-3.007c-2.415-5.829-5.457-7.634-13.557-8.043-6.577-.333-7.46-.158-8.437 1.668m48.309-1.084c-3.485 2.388-1.717 7.254 2.635 7.254H199v10.566c0 11.066.895 14.434 3.835 14.434 3.532 0 4.165-2.071 4.165-13.637v-11.236l3.149-.314c3.836-.381 5.843-3.015 4.24-5.563-.901-1.431-2.814-1.796-10.495-2.004-5.167-.14-9.889.085-10.494.5M21.872 113.75c-1.243 1.586-1.208 1.621.378.378.962-.755 1.75-1.543 1.75-1.75 0-.823-.821-.294-2.128 1.372m56.378 5.912c-.687.278-1.25 1.817-1.25 3.421 0 2.667.3 2.917 3.5 2.917 2.79 0 3.5-.391 3.5-1.929 0-1.894-2.49-5.147-3.821-4.992-.374.043-1.241.306-1.929.583m73.75 2.901c0 3.418.133 3.551 3.25 3.25 2.553-.246 3.322-.825 3.587-2.7.377-2.661-1.206-4.075-4.587-4.098-1.915-.013-2.25.515-2.25 3.548m26.25-2.901c-2.002.808-1.703 14.95.332 15.731 2.117.812 2.054.828 3.847-.964 1.037-1.038 1.571-3.392 1.571-6.929 0-6.591-2.019-9.343-5.75-7.838m-149.795 3.793c-1.35 1.35-2.455 3.17-2.455 4.045 0 2.059 4.441 6.5 6.5 6.5s6.5-4.441 6.5-6.5c0-.875-1.105-2.695-2.455-4.045S33.375 121 32.5 121s-2.695 1.105-4.045 2.455m191 0c-1.35 1.35-2.455 3.17-2.455 4.045s1.105 2.695 2.455 4.045S222.625 134 223.5 134s2.695-1.105 4.045-2.455S230 128.375 230 127.5s-1.105-2.695-2.455-4.045S224.375 121 223.5 121s-2.695 1.105-4.045 2.455M.31 127.5c.005 3.3.192 4.529.415 2.732.222-1.797.218-4.497-.01-6-.229-1.503-.411-.032-.405 3.268m16.769.083c.048 1.165.285 1.402.604.605.289-.722.253-1.585-.079-1.917-.332-.332-.568.258-.525 1.312M21 140.378c0 .207.788.995 1.75 1.75 1.586 1.243 1.621 1.208.378-.378-1.307-1.666-2.128-2.195-2.128-1.372m66.455 40.077C86.105 181.805 85 183.4 85 184c0 .6 1.105 2.195 2.455 3.545S90.4 190 91 190c.6 0 2.195-1.105 3.545-2.455S97 184.6 97 184c0-.6-1.105-2.195-2.455-3.545S91.6 178 91 178c-.6 0-2.195 1.105-3.545 2.455m74 0C160.105 181.805 159 183.4 159 184c0 .6 1.105 2.195 2.455 3.545S164.4 190 165 190c.6 0 2.195-1.105 3.545-2.455S171 184.6 171 184c0-.6-1.105-2.195-2.455-3.545S165.6 178 165 178c-.6 0-2.195 1.105-3.545 2.455"/><path fill="#1976D2" fill-opacity=".208" fill-rule="evenodd" d="M121.231 31.25c-7.976 14.41-6.233 13.937-17.419 4.727-9.466-7.795-11.182-8.805-12.186-7.18-.271.438-1.27 6.288-2.22 13C88.456 48.512 87.21 54 86.635 54c-.575 0-6.122-1.671-12.327-3.713-7.974-2.625-11.594-3.401-12.346-2.649-.752.752-.316 4.311 1.487 12.141C64.852 65.871 66 71.563 66 72.428c0 1.293-1.373 1.574-7.75 1.581-11.944.013-18.25.988-18.25 2.822 0 .854 2.307 5.067 5.126 9.361L50.252 94l77.624-.023 77.624-.022 5.32-8.074c2.926-4.441 5.104-8.638 4.839-9.326-.53-1.384-9.381-2.555-19.306-2.555-5.11 0-6.353-.308-6.353-1.572 0-.865 1.148-6.557 2.551-12.649 1.803-7.83 2.239-11.389 1.487-12.141-.752-.752-4.372.024-12.346 2.649C175.487 52.329 169.94 54 169.365 54c-.575 0-1.821-5.488-2.771-12.203-.95-6.712-1.949-12.562-2.22-13-1.004-1.625-2.72-.615-12.186 7.18-11.186 9.21-9.443 9.683-17.419-4.727C131.527 25.393 129.044 22 128 22c-1.044 0-3.527 3.393-6.769 9.25m3.009 23.634c-1.992 2.823-3.969 4.257-7.239 5.25-5.383 1.634-6.01 3.513-2.549 7.627 2.007 2.385 2.548 4.119 2.548 8.165 0 6.145 1.258 6.988 7.002 4.69 3.664-1.466 4.332-1.466 7.996 0 5.744 2.298 7.002 1.455 7.002-4.69 0-4.046.541-5.78 2.548-8.165 3.461-4.114 2.834-5.993-2.549-7.627-3.27-.993-5.247-2.427-7.239-5.25C130.252 52.748 128.56 51 128 51c-.56 0-2.252 1.748-3.76 3.884M86.655 66.829c-2.186 2.415-2.103 6.455.174 8.516C90.793 78.933 97 76.175 97 70.826c0-5.121-6.911-7.792-10.345-3.997m74 0c-2.186 2.415-2.103 6.455.174 8.516 3.964 3.588 10.171.83 10.171-4.519 0-5.121-6.911-7.792-10.345-3.997M60.714 112.25c-1.335 1.001-1.722 3.325-1.941 11.644-.226 8.622-.571 10.581-2.023 11.495-2.257 1.42-5.125-.25-5.57-3.243-.176-1.183-1.271-2.659-2.433-3.281-1.763-.944-2.401-.775-3.855 1.02-1.357 1.676-1.544 2.84-.847 5.271 2.638 9.199 14.503 11.5 19.938 3.868C65.722 136.582 66 134.62 66 124.796c0-13.051-1.107-15.678-5.286-12.546m14.484.383C70.064 115.225 69 118.362 69 130.901c0 9.373.255 11.142 1.724 11.965 3 1.679 5.276-.435 5.276-4.901 0-3.959.006-3.965 4-3.965 3.889 0 4 .095 4 3.429 0 3.145 2.042 6.571 3.916 6.571.426 0 1.519-.823 2.429-1.829 2.171-2.399 2.335-18.609.239-23.625-2.564-6.136-9.595-8.838-15.386-5.913m26.302-.253c-5.683 2.551-6.972 5.023-7.286 13.974-.185 5.245.171 9.002 1 10.55 1.977 3.695 6.413 6.496 10.286 6.496 6.051 0 12.534-6.6 10.4-10.587-1.315-2.457-5.59-2.366-6.384.136-.708 2.23-3.47 3.39-5.875 2.467-1.315-.505-1.641-2.087-1.641-7.956 0-6.644.202-7.389 2.175-8.016 1.687-.535 2.754.014 4.75 2.442 4.572 5.562 9.985 2.787 6.887-3.53-2.707-5.521-9.245-8.251-14.312-5.976m19.071.191c-2.306 2.307-2.306 27.551 0 29.858.865.864 1.958 1.571 2.429 1.571 1.969 0 4-3.381 4-6.658v-3.515l6.079 5.079c5.054 4.224 6.403 4.907 8 4.052 3.145-1.684 2.234-4.217-3.582-9.961l-5.502-5.434 5.737-5.798c4.789-4.838 5.557-6.084 4.646-7.531-1.918-3.045-4.249-2.499-9.882 2.313L127 121.243v-3.55c0-3.307-2.024-6.693-4-6.693-.471 0-1.564.707-2.429 1.571m25.357.016c-1.94 2.337-1.594 28.176.403 30.173 1.123 1.123 1.896 1.189 3.552.302 1.61-.861 2.117-2.083 2.117-5.097V134h4.1c3.329 0 4.739-.639 7.5-3.4 2.831-2.831 3.4-4.133 3.4-7.777 0-5.252-2.082-8.541-6.599-10.429-4.622-1.931-12.801-1.822-14.473.193m29.27.046C170.493 115.009 169 118.59 169 127.5c0 9.147 1.52 12.57 6.666 15.012 3.357 1.593 4.172 1.634 7.704.385 5.789-2.048 7.993-5.625 8.45-13.719.601-10.642-2.717-16.299-10.372-17.681-1.755-.317-4.284.143-6.25 1.136m18.552-.553c-3.508 2.043-1.429 6.92 2.95 6.92 2.252 0 2.3.215 2.3 10.389 0 8.551.322 10.787 1.817 12.633 1.547 1.911 2.141 2.071 4 1.076 2.049-1.097 2.183-1.871 2.183-12.633V119h2.965c1.908 0 3.334-.69 4-1.934 1.339-2.502 1.323-2.635-.536-4.495-1.835-1.834-16.734-2.206-19.679-.491m-116.715 8.854C74.995 124.746 75.729 126 80 126c3.507 0 4-.283 4-2.3 0-4.492-4.982-6.471-6.965-2.766M152 123c0 3.569.262 4 2.429 4 2.588 0 5.571-2.34 5.571-4.371 0-2.06-2.249-3.629-5.2-3.629-2.6 0-2.8.286-2.8 4m25.035-2.066c-.569 1.064-1.035 4.019-1.035 6.566 0 5.448 1.377 8.5 3.835 8.5 3.084 0 4.165-2.206 4.165-8.5 0-3.411-.529-6.629-1.2-7.3-1.802-1.802-4.598-1.446-5.765.734m-148.464 2.637c-3.536 3.536-.848 9.429 4.3 9.429 3.564 0 5.129-1.678 5.129-5.5 0-1.705-.54-3.64-1.2-4.3-1.699-1.699-6.369-1.488-8.229.371M219.2 123.2c-.66.66-1.2 2.595-1.2 4.3 0 3.822 1.565 5.5 5.129 5.5 5.148 0 7.836-5.893 4.3-9.429-1.86-1.859-6.53-2.07-8.229-.371M45.126 168.808c-2.819 4.294-5.126 8.507-5.126 9.361 0 1.834 6.306 2.809 18.25 2.822 6.377.007 7.75.288 7.75 1.581 0 .865-1.148 6.557-2.551 12.649-1.803 7.83-2.239 11.389-1.487 12.141.752.752 4.372-.024 12.346-2.649C80.513 202.671 86.06 201 86.635 201c.575 0 1.821 5.488 2.771 12.203.95 6.712 1.949 12.562 2.22 13 1.004 1.625 2.72.615 12.186-7.18 11.186-9.21 9.443-9.683 17.419 4.727 3.242 5.857 5.725 9.25 6.769 9.25 1.044 0 3.527-3.393 6.769-9.25 7.976-14.41 6.233-13.937 17.419-4.727 9.466 7.795 11.182 8.805 12.186 7.18.271-.438 1.27-6.288 2.22-13 .95-6.715 2.196-12.203 2.771-12.203.575 0 6.122 1.671 12.327 3.713 7.974 2.625 11.594 3.401 12.346 2.649.752-.752.316-4.311-1.487-12.141-1.403-6.092-2.551-11.784-2.551-12.649 0-1.264 1.243-1.572 6.353-1.572 9.925 0 18.776-1.171 19.306-2.555.265-.688-1.913-4.885-4.839-9.326l-5.32-8.074-77.624-.022L50.252 161l-5.126 7.808m79.114 6.161c-2.047 2.966-3.876 4.301-7.232 5.281-5.375 1.57-6.002 3.415-2.556 7.511 2.007 2.385 2.548 4.119 2.548 8.165 0 6.141 1.322 7.037 7.058 4.784 3.559-1.399 4.325-1.399 7.884 0 5.736 2.253 7.058 1.357 7.058-4.784 0-4.046.541-5.78 2.548-8.165 3.446-4.096 2.819-5.941-2.556-7.511-3.356-.98-5.185-2.315-7.232-5.281-1.508-2.183-3.2-3.969-3.76-3.969-.56 0-2.252 1.786-3.76 3.969m-37.585 4.86c-2.186 2.415-2.103 6.455.174 8.516 3.964 3.588 10.171.83 10.171-4.519 0-5.121-6.911-7.792-10.345-3.997m74 0c-3.588 3.964-.83 10.171 4.519 10.171 5.121 0 7.792-6.911 3.997-10.345-2.415-2.186-6.455-2.103-8.516.174"/><path fill="#1976D2" fill-opacity=".419" fill-rule="evenodd" d="M59.628 113.528c-.346.899-.628 5.819-.628 10.931 0 10.035-.884 11.984-5.154 11.368-1.424-.206-2.473-1.22-2.828-2.732-1.261-5.381-7.018-5.403-7.018-.026 0 2.227.981 4.112 3.4 6.531 4.576 4.576 10.051 4.755 14.834.484l3.266-2.915V112.5l-2.622-.304c-1.709-.198-2.841.266-3.25 1.332m13.138 1.388-3.266 2.915v12.335c0 12.24.018 12.337 2.387 12.671 2.959.419 4.078-1.243 4.098-6.087C76 133.044 76.047 133 80 133c3.861 0 4 .115 4 3.309 0 4.125 2.025 7.025 4.566 6.538 1.75-.335 1.961-1.412 2.22-11.315.322-12.339-.634-15.885-4.877-18.079-4.612-2.385-9.435-1.848-13.143 1.463m26.351-1.285C95.866 115.908 94 120.965 94 127.5c0 10.357 3.915 15.5 11.799 15.5 5.542 0 10.524-4.346 10.018-8.74-.44-3.827-4.091-4.297-6.369-.821-1.786 2.726-5.235 3.374-7.248 1.361-1.566-1.566-1.566-13.034 0-14.6 2.249-2.249 5.653-1.384 7.332 1.862 2.215 4.283 5.838 3.794 6.284-.849.253-2.627-.321-3.882-2.856-6.25-3.695-3.452-9.956-4.055-13.843-1.332m21.349-.403c-.289.753-.399 7.647-.246 15.32l.28 13.952h2.5c2.273 0 2.528-.431 2.805-4.75.167-2.613.634-4.75 1.037-4.75.403 0 2.966 2.268 5.696 5.041 3.74 3.799 5.578 4.969 7.462 4.75 4.504-.524 3.65-3.886-2.455-9.66-3.05-2.884-5.545-5.426-5.545-5.648 0-.221 2.25-2.507 5-5.08 5.133-4.801 6.471-8.625 3.428-9.792-2.095-.804-4.142.419-8.881 5.31-2.174 2.243-4.287 4.079-4.695 4.079-.408 0-.88-2.138-1.047-4.75-.261-4.057-.634-4.797-2.559-5.07-1.24-.176-2.491.295-2.78 1.048m25.201-.561c-.367.366-.667 7.13-.667 15.031 0 12.377.226 14.452 1.636 14.993 2.645 1.015 4.841-1.125 5.174-5.042.287-3.37.554-3.649 3.5-3.653 4.112-.005 9.469-3.285 10.715-6.562 1.878-4.938 1.173-8.436-2.425-12.034-3.213-3.213-3.782-3.4-10.333-3.4-3.814 0-7.234.3-7.6.667m27.099 2.251c-3.261 2.914-3.266 2.932-3.266 12.582s.005 9.668 3.266 12.582c3.694 3.301 8.527 3.852 13.089 1.493 3.86-1.996 5.145-5.51 5.145-14.075s-1.285-12.079-5.145-14.075c-4.562-2.359-9.395-1.808-13.089 1.493m19.69-.778c-.823 2.593 1.619 4.86 5.235 4.86 2.278 0 2.309.152 2.309 11.531 0 9.754.252 11.629 1.636 12.16.9.345 2.362.17 3.25-.389 1.294-.814 1.67-3.184 1.895-11.961l.281-10.945 3.219-.948c2.514-.74 3.219-1.495 3.219-3.448 0-2.484-.064-2.502-10.172-2.784-9.732-.272-10.202-.189-10.872 1.924m-115.368 6.254c-.683.823-1.094 2.533-.915 3.801.266 1.878 1.034 2.363 4.141 2.619l3.814.314-.314-3.814c-.268-3.259-.69-3.858-2.9-4.115-1.422-.165-3.144.373-3.826 1.195M152 123c0 4.028.075 4.119 3.149 3.813 6.367-.633 6.367-6.993 0-7.626-3.074-.306-3.149-.215-3.149 3.813m25.243-2.843c-.722.722-1.243 3.83-1.243 7.421 0 6.769 1.281 8.804 5.195 8.249 2.187-.31 2.305-.735 2.305-8.327 0-7.795-.064-8.008-2.507-8.293-1.379-.161-3.066.266-3.75.95m-148.588 3.672c-3.229 3.568-.774 9.171 4.019 9.171 2.512 0 5.326-2.998 5.326-5.674 0-4.581-6.248-6.919-9.345-3.497m191 0c-3.229 3.568-.774 9.171 4.019 9.171 2.512 0 5.326-2.998 5.326-5.674 0-4.581-6.248-6.919-9.345-3.497"/></svg>